# xmcd CD database file
#
# Track frame offsets:
#	187
#	15577
#	47892
#	86740
#	99275
#	121887
#	139485
#	158427
#	176640
#	197177
#
# Disc length: 3097 seconds
#
# Revision: 4
# Processed by: cddbd v1.5.2PL0 Copyright (c) Steve Scherf et al.
# Submitted via: CDex 1.70beta2
#
DISCID=7f0c170a
DTITLE=Ronnie Wood and Bo Diddley - Live At The Ritz [New York City, November 1987]
DYEAR=1988
DGENRE=Rock
TTITLE0=Road Runner
TTITLE1=I'm A Man
TTITLE2=Crackin' Up
TTITLE3=Hey Bo Diddley
TTITLE4=Plynth - Water Down The Drain
TTITLE5=Ooh La La Song
TTITLE6=They Dont Make Outlaws Like They Used To
TTITLE7=Honky Tonk Women
TTITLE8=Money To Ronnie
TTITLE9=Who Do You Love
EXTD=YEAR: 1988
EXTT0=
EXTT1=
EXTT2=
EXTT3=
EXTT4=
EXTT5=
EXTT6=
EXTT7=
EXTT8=
EXTT9=
PLAYORDER=
